<svg xmlns="http://www.w3.org/2000/svg" viewBox="0 0 1742.46 36.64"><defs><style>.cls-1{fill:#da233f;}.cls-2{fill:#ff9dac;}</style></defs><title>Asset 10</title><g id="Layer_2" data-name="Layer 2"><g id="Layer_1-2" data-name="Layer 1"><polygon class="cls-1" points="1395.86 36.64 1313.75 36.53 1332.35 1.77 1414.46 1.89 1395.86 36.64"/><polygon class="cls-2" points="1231.64 36.42 1149.53 36.31 1168.13 1.55 1250.24 1.67 1231.64 36.42"/><polygon class="cls-1" points="1067.42 36.2 985.31 36.09 1003.91 1.33 1086.02 1.44 1067.42 36.2"/><polygon class="cls-2" points="903.2 35.98 821.09 35.87 839.69 1.11 921.8 1.22 903.2 35.98"/><polygon class="cls-1" points="738.98 35.76 656.88 35.65 675.48 0.89 757.58 1 738.98 35.76"/><polygon class="cls-2" points="574.76 35.53 492.66 35.42 511.26 0.67 593.37 0.78 574.76 35.53"/><polygon class="cls-1" points="410.55 35.31 328.44 35.2 347.04 0.44 429.15 0.56 410.55 35.31"/><polygon class="cls-2" points="246.33 35.09 164.22 34.98 182.82 0.22 264.93 0.33 246.33 35.09"/><polygon class="cls-1" points="82.11 34.87 0 34.76 18.6 0 100.71 0.11 82.11 34.87"/><polygon class="cls-1" points="1723.86 36.64 1641.75 36.53 1660.35 1.77 1742.46 1.89 1723.86 36.64"/><polygon class="cls-2" points="1559.64 36.42 1477.53 36.31 1496.13 1.55 1578.24 1.67 1559.64 36.42"/></g></g></svg>