<svg xmlns="http://www.w3.org/2000/svg" viewBox="0 0 1740.46 36.64"><defs><style>.cls-1{fill:#ff9dac;}.cls-2{fill:#da233f;}</style></defs><title>Asset 11</title><g id="Layer_2" data-name="Layer 2"><g id="Layer_1-2" data-name="Layer 1"><polygon class="cls-1" points="1386 36.64 1304.47 36.53 1322.94 1.77 1404.46 1.89 1386 36.64"/><polygon class="cls-2" points="1222.94 36.42 1141.41 36.31 1159.88 1.55 1241.41 1.67 1222.94 36.42"/><polygon class="cls-1" points="1059.88 36.2 978.35 36.09 996.82 1.33 1078.35 1.44 1059.88 36.2"/><polygon class="cls-2" points="896.82 35.98 815.29 35.87 833.76 1.11 915.29 1.22 896.82 35.98"/><polygon class="cls-1" points="733.76 35.76 652.23 35.65 670.7 0.89 752.23 1 733.76 35.76"/><polygon class="cls-2" points="570.71 35.53 489.18 35.42 507.64 0.67 589.17 0.78 570.71 35.53"/><polygon class="cls-1" points="407.65 35.31 326.12 35.2 344.59 0.44 426.12 0.56 407.65 35.31"/><polygon class="cls-2" points="244.59 35.09 163.06 34.98 181.53 0.22 263.06 0.33 244.59 35.09"/><polygon class="cls-1" points="81.53 34.87 0 34.76 18.47 0 100 0.11 81.53 34.87"/><polygon class="cls-1" points="1722 36.64 1640.47 36.53 1658.94 1.77 1740.46 1.89 1722 36.64"/><polygon class="cls-2" points="1558.94 36.42 1477.41 36.31 1495.88 1.55 1577.41 1.67 1558.94 36.42"/></g></g></svg>